<?xml version="1.0" encoding="utf-8"?>
<!-- Generator: Adobe Illustrator 17.0.0, SVG Export Plug-In . SVG Version: 6.00 Build 0)  -->
<!DOCTYPE svg PUBLIC "-//W3C//DTD SVG 1.1//EN" "http://www.w3.org/Graphics/SVG/1.1/DTD/svg11.dtd">
<svg version="1.1" id="Layer_1" xmlns="http://www.w3.org/2000/svg" xmlns:xlink="http://www.w3.org/1999/xlink" x="0px" y="0px"
	 width="888px" height="14px" viewBox="0 0 888 14" enable-background="new 0 0 888 14" xml:space="preserve">
<polygon opacity="0.7" fill="#D8D8D8" points="10.921,14 16.384,0 3.311,0 9.311,14 "/>
<polygon opacity="0.7" fill="#F2F2F2" points="3.311,0 0.001,0 0,14 9.311,14 "/>
<polygon opacity="0.7" fill="#D8D8D8" points="137.451,14 126.416,0 105.193,0 102.905,14 "/>
<polygon opacity="0.7" fill="#D8D8D8" points="168.066,14 175.438,14 172.84,7.044 "/>
<polygon opacity="0.7" fill="#DDDDDD" points="168.066,14 172.84,7.044 157.476,0 126.416,0 137.451,14 "/>
<polygon opacity="0.7" fill="#DDDDDD" points="260.444,14 251.6,0 251.366,0 238.846,14 "/>
<polygon opacity="0.7" fill="#DDDDDD" points="307.421,14 307.544,14 307.493,13.954 "/>
<polygon opacity="0.7" fill="#E6E6E6" points="102.905,14 105.193,0 51.328,0 15.222,14 "/>
<polygon opacity="0.7" fill="#F2F2F2" points="307.421,14 307.493,13.954 285.674,0 251.675,0 260.48,14 "/>
<polygon opacity="0.7" fill="#DDDDDD" points="260.48,14 251.675,0 251.6,0 260.444,14 "/>
<polygon opacity="0.7" fill="#F2F2F2" points="260.48,14 251.675,0 251.6,0 260.444,14 "/>
<polygon opacity="0.7" fill="#F2F2F2" points="307.544,14 380.698,14 361.629,0 339.157,0 307.493,13.954 "/>
<polygon opacity="0.7" fill="#F2F2F2" points="15.222,14 51.328,0 16.384,0 10.921,14 "/>
<line opacity="0.7" fill="none" stroke="#D8D8D8" stroke-width="0" stroke-linecap="round" stroke-linejoin="round" x1="16.384" y1="0" x2="10.921" y2="14"/>
<line opacity="0.7" fill="none" stroke="#F2F2F2" stroke-width="0" stroke-linecap="round" stroke-linejoin="round" x1="16.384" y1="0" x2="10.921" y2="14"/>
<line opacity="0.7" fill="none" stroke="#D8D8D8" stroke-width="0" stroke-linecap="round" stroke-linejoin="round" x1="16.384" y1="0" x2="10.921" y2="14"/>
<line opacity="0.7" fill="none" stroke="#F2F2F2" stroke-width="0" stroke-linecap="round" stroke-linejoin="round" x1="16.384" y1="0" x2="10.921" y2="14"/>
<polygon opacity="0.7" fill="#F2F2F2" points="166.604,0 157.476,0 172.84,7.044 "/>
<polygon opacity="0.7" fill="#E6E6E6" points="179.22,0 166.604,0 172.84,7.044 "/>
<polygon opacity="0.7" fill="#F2F2F2" points="175.438,14 194.509,14 200.333,0 179.22,0 172.84,7.044 "/>
<polygon opacity="0.7" fill="#E6E6E6" points="219.741,14 219.379,0 200.333,0 194.509,14 "/>
<line opacity="0.7" fill="none" stroke="#F2F2F2" stroke-width="0" stroke-linecap="round" stroke-linejoin="round" x1="200.333" y1="0" x2="194.509" y2="14"/>
<line opacity="0.7" fill="none" stroke="#E6E6E6" stroke-width="0" stroke-linecap="round" stroke-linejoin="round" x1="200.333" y1="0" x2="194.509" y2="14"/>
<line opacity="0.7" fill="none" stroke="#F2F2F2" stroke-width="0" stroke-linecap="round" stroke-linejoin="round" x1="200.333" y1="0" x2="194.509" y2="14"/>
<line opacity="0.7" fill="none" stroke="#E6E6E6" stroke-width="0" stroke-linecap="round" stroke-linejoin="round" x1="200.333" y1="0" x2="194.509" y2="14"/>
<polygon opacity="0.7" fill="#E6E6E6" points="339.157,0 304.785,0 307.493,13.954 "/>
<polygon opacity="0.7" fill="#DDDDDD" points="404.435,14 403.091,0 361.629,0 380.698,14 "/>
<polygon opacity="0.7" fill="#E6E6E6" points="417.004,14 425.045,0 403.091,0 404.435,14 "/>
<polygon opacity="0.7" fill="#DDDDDD" points="304.785,0 285.674,0 307.493,13.954 "/>
<polygon opacity="0.7" fill="#D8D8D8" points="238.846,14 251.366,0 219.379,0 219.741,14 "/>
<polygon opacity="0.7" fill="#D8D8D8" points="878.689,14 884.689,0 871.616,0 877.079,14 "/>
<polygon opacity="0.7" fill="#F2F2F2" points="888,14 887.999,0 884.689,0 878.689,14 "/>
<polygon opacity="0.7" fill="#D8D8D8" points="785.095,14 782.807,0 761.584,0 750.549,14 "/>
<polygon opacity="0.7" fill="#D8D8D8" points="712.562,14 719.934,14 715.16,7.044 "/>
<polygon opacity="0.7" fill="#DDDDDD" points="719.934,14 750.549,14 761.584,0 730.524,0 715.16,7.044 "/>
<polygon opacity="0.7" fill="#DDDDDD" points="649.154,14 636.634,0 636.4,0 627.556,14 "/>
<polygon opacity="0.7" fill="#DDDDDD" points="580.456,14 580.579,14 580.507,13.954 "/>
<polygon opacity="0.7" fill="#E6E6E6" points="872.778,14 836.672,0 782.807,0 785.095,14 "/>
<polygon opacity="0.7" fill="#F2F2F2" points="580.579,14 627.52,14 636.325,0 602.326,0 580.507,13.954 "/>
<polygon opacity="0.7" fill="#DDDDDD" points="627.556,14 636.4,0 636.325,0 627.52,14 "/>
<polygon opacity="0.7" fill="#F2F2F2" points="627.556,14 636.4,0 636.325,0 627.52,14 "/>
<polygon opacity="0.7" fill="#F2F2F2" points="580.456,14 580.507,13.954 548.843,0 526.371,0 507.302,14 "/>
<polygon opacity="0.7" fill="#F2F2F2" points="470.996,14 462.955,0 425.045,0 417.004,14 "/>
<polygon opacity="0.7" fill="#F2F2F2" points="877.079,14 871.616,0 836.672,0 872.778,14 "/>
<line opacity="0.7" fill="none" stroke="#D8D8D8" stroke-width="0" stroke-linecap="round" stroke-linejoin="round" x1="871.616" y1="0" x2="877.079" y2="14"/>
<line opacity="0.7" fill="none" stroke="#F2F2F2" stroke-width="0" stroke-linecap="round" stroke-linejoin="round" x1="871.616" y1="0" x2="877.079" y2="14"/>
<line opacity="0.7" fill="none" stroke="#D8D8D8" stroke-width="0" stroke-linecap="round" stroke-linejoin="round" x1="871.616" y1="0" x2="877.079" y2="14"/>
<line opacity="0.7" fill="none" stroke="#F2F2F2" stroke-width="0" stroke-linecap="round" stroke-linejoin="round" x1="871.616" y1="0" x2="877.079" y2="14"/>
<polygon opacity="0.7" fill="#F2F2F2" points="730.524,0 721.396,0 715.16,7.044 "/>
<polygon opacity="0.7" fill="#E6E6E6" points="721.396,0 708.78,0 715.16,7.044 "/>
<polygon opacity="0.7" fill="#F2F2F2" points="712.562,14 715.16,7.044 708.78,0 687.667,0 693.491,14 "/>
<polygon opacity="0.7" fill="#E6E6E6" points="693.491,14 687.667,0 668.621,0 668.259,14 "/>
<line opacity="0.7" fill="none" stroke="#F2F2F2" stroke-width="0" stroke-linecap="round" stroke-linejoin="round" x1="687.667" y1="0" x2="693.491" y2="14"/>
<line opacity="0.7" fill="none" stroke="#E6E6E6" stroke-width="0" stroke-linecap="round" stroke-linejoin="round" x1="687.667" y1="0" x2="693.491" y2="14"/>
<line opacity="0.7" fill="none" stroke="#F2F2F2" stroke-width="0" stroke-linecap="round" stroke-linejoin="round" x1="687.667" y1="0" x2="693.491" y2="14"/>
<line opacity="0.7" fill="none" stroke="#E6E6E6" stroke-width="0" stroke-linecap="round" stroke-linejoin="round" x1="687.667" y1="0" x2="693.491" y2="14"/>
<polygon opacity="0.7" fill="#E6E6E6" points="583.215,0 548.843,0 580.507,13.954 "/>
<polygon opacity="0.7" fill="#DDDDDD" points="507.302,14 526.371,0 484.909,0 483.565,14 "/>
<polygon opacity="0.7" fill="#E6E6E6" points="483.565,14 484.909,0 462.955,0 470.996,14 "/>
<polygon opacity="0.7" fill="#DDDDDD" points="602.326,0 583.215,0 580.507,13.954 "/>
<polygon opacity="0.7" fill="#D8D8D8" points="668.259,14 668.621,0 636.634,0 649.154,14 "/>
<g>
</g>
<g>
</g>
<g>
</g>
<g>
</g>
<g>
</g>
<g>
</g>
<g>
</g>
<g>
</g>
<g>
</g>
<g>
</g>
<g>
</g>
<g>
</g>
<g>
</g>
<g>
</g>
<g>
</g>
</svg>
